<svg width="48" height="48" viewBox="0 0 48 48" fill="none" xmlns="http://www.w3.org/2000/svg">
<rect width="48" height="48" rx="8" fill="#1E1E1E"/>
<path d="M4 23.9957C4 26.0465 4.31099 28.0217 4.89094 29.8877C4.9834 30.1987 5.09267 30.5013 5.20193 30.8038C5.43728 31.4342 5.69784 32.0478 5.98361 32.6446C9.19437 39.2258 15.9437 43.7561 23.7604 43.7561V43.0501C20.4909 43.0501 17.8348 40.3857 17.8348 37.1161C17.8348 33.8465 20.4825 31.1905 23.7604 31.1821V29.8793C22.9704 29.8793 22.3232 29.2405 22.3232 28.442C22.3232 27.6435 22.962 27.0047 23.7604 27.0047V25.7692C22.777 25.7692 21.9786 24.9707 21.9786 23.9873C21.9786 23.0039 22.777 22.2054 23.7604 22.2054V20.9698C22.9704 20.9698 22.3232 20.3311 22.3232 19.5326C22.3232 18.7341 22.962 18.0953 23.7604 18.0953V16.7841C20.4909 16.7841 17.8348 14.1197 17.8348 10.8501C17.8348 7.58049 20.4825 4.92447 23.7604 4.91606H24.3152L24.332 4.24365C13.4221 4.25206 4 13.0774 4 23.9957ZM21.4574 26.181C21.4574 26.9711 20.8187 27.6183 20.0202 27.6183C19.2217 27.6183 18.5829 26.9795 18.5829 26.181C18.5829 25.3825 19.2217 24.7438 20.0202 24.7438C20.8187 24.7438 21.4574 25.3825 21.4574 26.181ZM18.6585 29.8877C18.6753 30.0642 18.6838 30.2491 18.6838 30.434C18.6838 33.712 16.0277 36.368 12.7497 36.368C10.2618 36.368 8.13532 34.8383 7.25278 32.6614C7.06787 32.1991 6.93339 31.7116 6.86615 31.2073C6.83253 30.9551 6.81572 30.6946 6.81572 30.434C6.81572 30.2491 6.81572 30.0726 6.84093 29.8877C7.1183 26.8618 9.65665 24.5 12.7497 24.5C15.8428 24.5 18.3812 26.8702 18.6585 29.8877ZM21.4574 21.8188C21.4574 22.6088 20.8187 23.256 20.0202 23.256C19.2217 23.256 18.5829 22.6173 18.5829 21.8188C18.5829 21.0203 19.2217 20.3815 20.0202 20.3815C20.8187 20.3815 21.4574 21.0203 21.4574 21.8188ZM18.6753 17.5658C18.6753 20.8438 16.0193 23.4998 12.7413 23.4998C9.46333 23.4998 6.80731 20.8438 6.80731 17.5658C6.80731 14.2878 9.46333 11.6318 12.7413 11.6318C16.0193 11.6318 18.6753 14.2878 18.6753 17.5658Z" fill="#6F99FF"/>
<path d="M24.3405 4.25195C35.1999 4.25195 44 13.0521 44 23.9115C44 34.771 35.1999 43.5711 24.3405 43.5711V4.25195Z" fill="url(#paint0_linear_69_1021)"/>
<defs>
<linearGradient id="paint0_linear_69_1021" x1="24.3405" y1="23.9115" x2="44" y2="23.9115" gradientUnits="userSpaceOnUse">
<stop stop-color="white"/>
<stop offset="1" stop-color="#F5D010"/>
</linearGradient>
</defs>
</svg>
