<svg width="144" height="49" viewBox="0 0 144 49" fill="none" xmlns="http://www.w3.org/2000/svg">
<g clip-path="url(#clip0_60_402)">
<path d="M59.48 0.209961V19.52L57.01 17.11H73.31V21.95H54V0.209961H59.48Z" fill="#EFEFEF"/>
<path d="M82.21 22.3997C80.68 22.3997 79.37 22.0897 78.28 21.4597C77.19 20.8297 76.36 19.9397 75.79 18.7797C75.22 17.6197 74.93 16.2497 74.93 14.6597V5.42969H80.32V13.8697C80.32 15.1997 80.64 16.2297 81.28 16.9397C81.92 17.6597 82.84 18.0097 84.03 18.0097C84.92 18.0097 85.67 17.8297 86.29 17.4597C86.91 17.0897 87.39 16.5597 87.73 15.8697C88.07 15.1697 88.24 14.3497 88.24 13.3997L89.92 14.2997C89.73 16.0397 89.27 17.5097 88.54 18.7197C87.81 19.9297 86.91 20.8397 85.81 21.4597C84.72 22.0797 83.51 22.3897 82.2 22.3897L82.21 22.3997ZM89.29 21.9597L88.25 15.5197V5.42969H93.62V16.3297L94.69 21.9597H89.3H89.29Z" fill="#EFEFEF"/>
<path d="M96.74 21.9597V18.1897L108.51 8.52969L112.22 9.33969H96.82V5.42969H114.25V9.19969L102.5 18.8597L99.34 18.0497H114.3V21.9697H96.73L96.74 21.9597Z" fill="#EFEFEF"/>
<path d="M143.33 22.0504L138.42 17.8504L142.37 13.2904H138.23L136.21 15.9504L131.23 11.6904C130.87 11.3804 130.62 11.0904 130.46 10.8204C130.3 10.5604 130.23 10.3004 130.23 10.0604C130.23 9.73043 130.32 9.46043 130.51 9.23043C130.69 9.00043 130.95 8.82043 131.29 8.70043C131.62 8.57043 132.03 8.51043 132.5 8.51043C133.3 8.51043 133.91 8.70043 134.35 9.08043C134.78 9.46043 135.04 9.95043 135.11 10.5404H139.06C139 9.61043 138.71 8.79043 138.17 8.06043C137.64 7.33043 136.88 6.76043 135.89 6.33043C134.91 5.90043 133.73 5.69043 132.34 5.69043C130.95 5.69043 129.86 5.86043 128.91 6.21043C127.96 6.56043 127.24 7.04043 126.75 7.65043C126.26 8.26043 126.01 8.97043 126.01 9.79043C126.01 10.4604 126.21 11.0904 126.62 11.6804C127 12.2304 127.49 12.7604 128.07 13.2804C127.53 13.4204 127.04 13.6004 126.61 13.8104C125.71 14.2604 125.05 14.8104 124.63 15.4704C124.21 16.1304 124 16.8504 124 17.6504C124 18.5504 124.25 19.3504 124.76 20.0604C125.27 20.7704 125.99 21.3404 126.93 21.7604C127.87 22.1804 128.99 22.3904 130.31 22.3904C131.36 22.3904 132.3 22.2704 133.12 22.0304C133.94 21.7904 134.7 21.4104 135.41 20.9104C135.68 20.7104 135.96 20.4904 136.23 20.2404L138.35 22.0504H143.35H143.33ZM133.46 18.8104C132.78 19.2104 131.91 19.4104 130.88 19.4104C130.28 19.4104 129.77 19.3104 129.33 19.1104C128.9 18.9104 128.56 18.6404 128.32 18.2904C128.08 17.9404 127.96 17.5604 127.96 17.1504C127.96 16.5104 128.22 15.9604 128.74 15.4904C129.04 15.2204 129.42 15.0004 129.86 14.8304L134.05 18.4004C133.86 18.5404 133.68 18.7004 133.48 18.8204L133.46 18.8104Z" fill="#EFEFEF"/>
<path d="M77.16 38.9698C76.95 40.8498 76.3 42.4898 75.22 43.9098C74.14 45.3298 72.71 46.4398 70.93 47.2298C69.15 48.0198 67.12 48.4198 64.84 48.4198C62.35 48.4198 60.16 47.9498 58.27 46.9998C56.39 46.0498 54.92 44.7298 53.88 43.0298C52.84 41.3298 52.31 39.3498 52.31 37.0898C52.31 34.8298 52.83 32.8498 53.88 31.1498C54.92 29.4498 56.39 28.1198 58.27 27.1798C60.16 26.2298 62.34 25.7598 64.84 25.7598C67.12 25.7598 69.15 26.1598 70.93 26.9498C72.71 27.7398 74.14 28.8498 75.22 30.2598C76.3 31.6698 76.95 33.3198 77.16 35.2198H71.65C71.46 34.2298 71.07 33.3898 70.48 32.6998C69.89 31.9998 69.12 31.4698 68.16 31.0898C67.2 30.7098 66.1 30.5198 64.84 30.5198C63.39 30.5198 62.14 30.7898 61.1 31.3198C60.06 31.8498 59.25 32.6098 58.69 33.5998C58.13 34.5898 57.85 35.7598 57.85 37.1098C57.85 38.4598 58.13 39.6298 58.69 40.6198C59.25 41.6098 60.05 42.3698 61.1 42.8998C62.15 43.4298 63.39 43.6998 64.84 43.6998C66.1 43.6998 67.2 43.5198 68.16 43.1498C69.12 42.7798 69.89 42.2498 70.48 41.5498C71.07 40.8498 71.46 39.9998 71.65 38.9998H77.16V38.9698Z" fill="#EFEFEF"/>
<path d="M89.12 48.4195C87.15 48.4195 85.38 48.0495 83.83 47.3195C82.27 46.5895 81.05 45.5595 80.16 44.2495C79.27 42.9395 78.83 41.3995 78.83 39.6395C78.83 37.8795 79.25 36.4095 80.11 35.1195C80.96 33.8295 82.13 32.8095 83.63 32.0795C85.13 31.3495 86.82 30.9795 88.72 30.9795C90.62 30.9795 92.32 31.4095 93.71 32.2595C95.1 33.1095 96.17 34.3095 96.93 35.8595C97.68 37.4095 98.06 39.2195 98.06 41.3095H83.15V37.9195H95.1L93.16 39.1395C93.1 38.2295 92.88 37.4595 92.51 36.8295C92.13 36.1995 91.63 35.7195 91.02 35.3795C90.4 35.0395 89.67 34.8695 88.82 34.8695C87.89 34.8695 87.09 35.0495 86.41 35.4195C85.73 35.7895 85.21 36.2995 84.83 36.9595C84.45 37.6195 84.26 38.3795 84.26 39.2495C84.26 40.3495 84.51 41.2895 85 42.0595C85.49 42.8295 86.21 43.4195 87.15 43.8295C88.09 44.2395 89.23 44.4395 90.59 44.4395C91.83 44.4395 93.06 44.2695 94.3 43.9295C95.54 43.5895 96.65 43.1095 97.64 42.4895V45.9995C96.52 46.7695 95.24 47.3695 93.8 47.7995C92.36 48.2195 90.81 48.4395 89.15 48.4395L89.12 48.4195Z" fill="#EFEFEF"/>
<path d="M99.9 31.4297H105.26L106.33 37.8697V47.9597H100.94V37.0597L99.9 31.4297ZM112.52 30.9697C114.11 30.9697 115.45 31.2897 116.57 31.9297C117.68 32.5697 118.53 33.4597 119.12 34.6097C119.71 35.7597 120 37.1397 120 38.7397V47.9597H114.61V39.5497C114.61 38.1797 114.27 37.1397 113.59 36.4297C112.91 35.7197 111.95 35.3697 110.69 35.3697C109.8 35.3697 109.03 35.5597 108.37 35.9397C107.71 36.3197 107.21 36.8497 106.86 37.5397C106.51 38.2297 106.34 39.0397 106.34 39.9897L104.63 39.0897C104.84 37.3297 105.32 35.8497 106.07 34.6497C106.81 33.4497 107.74 32.5397 108.85 31.9097C109.96 31.2797 111.18 30.9697 112.52 30.9697Z" fill="#EFEFEF"/>
<path d="M139.6 39.69C139.31 41.45 138.76 42.98 137.95 44.29C137.14 45.6 136.11 46.61 134.88 47.33C133.64 48.06 132.25 48.42 130.7 48.42C129.08 48.42 127.65 48.05 126.42 47.32C125.19 46.59 124.23 45.57 123.53 44.26C122.83 42.95 122.49 41.43 122.49 39.69C122.49 37.95 122.84 36.43 123.53 35.12C124.23 33.81 125.19 32.8 126.42 32.06C127.65 31.33 129.07 30.96 130.7 30.96C132.33 30.96 133.64 31.32 134.88 32.05C136.12 32.78 137.15 33.79 137.97 35.08C138.79 36.38 139.34 37.91 139.61 39.69H139.6ZM127.95 39.69C127.95 40.58 128.13 41.37 128.5 42.05C128.87 42.74 129.38 43.28 130.02 43.67C130.67 44.07 131.42 44.26 132.27 44.26C133.12 44.26 133.93 44.06 134.69 43.67C135.45 43.27 136.13 42.73 136.71 42.05C137.29 41.36 137.73 40.58 138.02 39.69C137.73 38.8 137.29 38.01 136.71 37.33C136.13 36.64 135.46 36.1 134.69 35.71C133.93 35.31 133.12 35.12 132.27 35.12C131.42 35.12 130.67 35.32 130.02 35.71C129.37 36.11 128.86 36.65 128.5 37.33C128.13 38.02 127.95 38.8 127.95 39.69ZM138.27 47.96L137.54 41.96L138.32 39.7L137.54 37.47L138.27 31.44H143.87L142.86 39.7L143.87 47.97H138.27V47.96Z" fill="#EFEFEF"/>
<path d="M0.130005 24.3604C0.130005 26.8004 0.500005 29.1504 1.19 31.3704C1.3 31.7404 1.43 32.1004 1.56 32.4604C1.84 33.2104 2.15 33.9403 2.49 34.6503C6.31 42.4803 14.34 47.8703 23.64 47.8703V47.0303C19.75 47.0303 16.59 43.8603 16.59 39.9703C16.59 36.0803 19.74 32.9203 23.64 32.9104V31.3604C22.7 31.3604 21.93 30.6004 21.93 29.6504C21.93 28.7004 22.69 27.9404 23.64 27.9404V26.4704C22.47 26.4704 21.52 25.5204 21.52 24.3504C21.52 23.1804 22.47 22.2304 23.64 22.2304V20.7604C22.7 20.7604 21.93 20.0004 21.93 19.0504C21.93 18.1004 22.69 17.3404 23.64 17.3404V15.7804C19.75 15.7804 16.59 12.6104 16.59 8.72035C16.59 4.83035 19.74 1.67035 23.64 1.66035H24.3L24.32 0.860352C11.34 0.870352 0.130005 11.3704 0.130005 24.3604ZM20.9 26.9604C20.9 27.9004 20.14 28.6704 19.19 28.6704C18.24 28.6704 17.48 27.9104 17.48 26.9604C17.48 26.0104 18.24 25.2504 19.19 25.2504C20.14 25.2504 20.9 26.0104 20.9 26.9604ZM17.57 31.3704C17.59 31.5804 17.6 31.8004 17.6 32.0204C17.6 35.9204 14.44 39.0803 10.54 39.0803C7.58 39.0803 5.05 37.2603 4 34.6703C3.78 34.1203 3.62 33.5403 3.54 32.9403C3.50001 32.6404 3.48 32.3304 3.48 32.0204C3.48 31.8004 3.48001 31.5904 3.51 31.3704C3.84 27.7704 6.86 24.9604 10.54 24.9604C14.22 24.9604 17.24 27.7804 17.57 31.3704ZM20.9 21.7704C20.9 22.7104 20.14 23.4804 19.19 23.4804C18.24 23.4804 17.48 22.7204 17.48 21.7704C17.48 20.8204 18.24 20.0604 19.19 20.0604C20.14 20.0604 20.9 20.8204 20.9 21.7704ZM17.59 16.7104C17.59 20.6104 14.43 23.7704 10.53 23.7704C6.63 23.7704 3.47 20.6104 3.47 16.7104C3.47 12.8104 6.63 9.65035 10.53 9.65035C14.43 9.65035 17.59 12.8104 17.59 16.7104Z" fill="#6F99FF"/>
<path d="M24.33 0.870117C37.25 0.870117 47.72 11.3401 47.72 24.2601C47.72 37.1801 37.25 47.6501 24.33 47.6501V0.870117Z" fill="url(#paint0_linear_60_402)"/>
</g>
<defs>
<linearGradient id="paint0_linear_60_402" x1="24.33" y1="24.2601" x2="47.72" y2="24.2601" gradientUnits="userSpaceOnUse">
<stop stop-color="white"/>
<stop offset="1" stop-color="#F5D010"/>
</linearGradient>
<clipPath id="clip0_60_402">
<rect width="143.74" height="48.21" fill="white" transform="translate(0.130005 0.209961)"/>
</clipPath>
</defs>
</svg>
