<svg width="16" height="17" viewBox="0 0 16 17" fill="none" xmlns="http://www.w3.org/2000/svg">
<path d="M14.0117 15.25V5.51172H1.98828V15.25H14.0117ZM14.0117 1.75C14.4102 1.75 14.75 1.90234 15.0312 2.20703C15.3359 2.51172 15.4883 2.86328 15.4883 3.26172V15.25C15.4883 15.6484 15.3359 16 15.0312 16.3047C14.75 16.6094 14.4102 16.7617 14.0117 16.7617H1.98828C1.58984 16.7617 1.23828 16.6094 0.933594 16.3047C0.652344 16 0.511719 15.6484 0.511719 15.25V3.26172C0.511719 2.86328 0.652344 2.51172 0.933594 2.20703C1.23828 1.90234 1.58984 1.75 1.98828 1.75H2.76172V0.238281H4.23828V1.75H11.7617V0.238281H13.2383V1.75H14.0117Z" fill="#1E1E1E"/>
</svg>
