<svg width="24" height="25" viewBox="0 0 24 25" fill="none" xmlns="http://www.w3.org/2000/svg">
<path fill-rule="evenodd" clip-rule="evenodd" d="M0.000488281 0.90498C0.000488281 0.692807 0.0847738 0.489324 0.234803 0.339295C0.384832 0.189266 0.588315 0.10498 0.800488 0.10498H3.20049C3.37894 0.10503 3.55225 0.164742 3.69286 0.27462C3.83347 0.384499 3.9333 0.538235 3.97649 0.71138L4.62449 3.30498H23.2005C23.3188 3.30505 23.4356 3.33136 23.5425 3.38202C23.6495 3.43268 23.7438 3.50642 23.8188 3.59794C23.8938 3.68945 23.9475 3.79646 23.9762 3.91125C24.0048 4.02604 24.0077 4.14576 23.9845 4.26178L22.3845 12.2618C22.3495 12.4362 22.2573 12.594 22.1226 12.7102C21.9878 12.8264 21.8182 12.8944 21.6405 12.9034L6.60529 13.6586L7.06449 16.105H20.8005C21.0127 16.105 21.2161 16.1893 21.3662 16.3393C21.5162 16.4893 21.6005 16.6928 21.6005 16.905C21.6005 17.1172 21.5162 17.3206 21.3662 17.4707C21.2161 17.6207 21.0127 17.705 20.8005 17.705H6.40049C6.21398 17.7048 6.03339 17.6395 5.88994 17.5203C5.7465 17.4011 5.64921 17.2355 5.61489 17.0522L3.21649 4.27618L2.57649 1.70498H0.800488C0.588315 1.70498 0.384832 1.6207 0.234803 1.47067C0.0847738 1.32064 0.000488281 1.11715 0.000488281 0.90498ZM4.96369 4.90498L6.30769 12.0714L20.9381 11.337L22.2245 4.90498H4.96369ZM8.00049 17.705C7.1518 17.705 6.33786 18.0421 5.73775 18.6422C5.13763 19.2424 4.80049 20.0563 4.80049 20.905C4.80049 21.7537 5.13763 22.5676 5.73775 23.1677C6.33786 23.7678 7.1518 24.105 8.00049 24.105C8.84918 24.105 9.66311 23.7678 10.2632 23.1677C10.8633 22.5676 11.2005 21.7537 11.2005 20.905C11.2005 20.0563 10.8633 19.2424 10.2632 18.6422C9.66311 18.0421 8.84918 17.705 8.00049 17.705ZM19.2005 17.705C18.3518 17.705 17.5379 18.0421 16.9377 18.6422C16.3376 19.2424 16.0005 20.0563 16.0005 20.905C16.0005 21.7537 16.3376 22.5676 16.9377 23.1677C17.5379 23.7678 18.3518 24.105 19.2005 24.105C20.0492 24.105 20.8631 23.7678 21.4632 23.1677C22.0633 22.5676 22.4005 21.7537 22.4005 20.905C22.4005 20.0563 22.0633 19.2424 21.4632 18.6422C20.8631 18.0421 20.0492 17.705 19.2005 17.705ZM8.00049 19.305C7.57614 19.305 7.16918 19.4736 6.86912 19.7736C6.56906 20.0737 6.40049 20.4806 6.40049 20.905C6.40049 21.3293 6.56906 21.7363 6.86912 22.0364C7.16918 22.3364 7.57614 22.505 8.00049 22.505C8.42483 22.505 8.8318 22.3364 9.13186 22.0364C9.43192 21.7363 9.60049 21.3293 9.60049 20.905C9.60049 20.4806 9.43192 20.0737 9.13186 19.7736C8.8318 19.4736 8.42483 19.305 8.00049 19.305ZM19.2005 19.305C18.7761 19.305 18.3692 19.4736 18.0691 19.7736C17.7691 20.0737 17.6005 20.4806 17.6005 20.905C17.6005 21.3293 17.7691 21.7363 18.0691 22.0364C18.3692 22.3364 18.7761 22.505 19.2005 22.505C19.6248 22.505 20.0318 22.3364 20.3319 22.0364C20.6319 21.7363 20.8005 21.3293 20.8005 20.905C20.8005 20.4806 20.6319 20.0737 20.3319 19.7736C20.0318 19.4736 19.6248 19.305 19.2005 19.305Z" fill="#1E1E1E"/>
</svg>
