<svg width="12" height="15" viewBox="0 0 12 15" fill="none" xmlns="http://www.w3.org/2000/svg">
<path d="M4.66406 6.58594C5.03906 6.9375 5.48438 7.11328 6 7.11328C6.51562 7.11328 6.94922 6.9375 7.30078 6.58594C7.67578 6.21094 7.86328 5.76563 7.86328 5.25C7.86328 4.73437 7.67578 4.30078 7.30078 3.94922C6.94922 3.57422 6.51562 3.38672 6 3.38672C5.48438 3.38672 5.03906 3.57422 4.66406 3.94922C4.3125 4.30078 4.13672 4.73437 4.13672 5.25C4.13672 5.76563 4.3125 6.21094 4.66406 6.58594ZM2.27344 1.55859C3.30469 0.527344 4.54688 0.0117188 6 0.0117188C7.45312 0.0117188 8.68359 0.527344 9.69141 1.55859C10.7227 2.56641 11.2383 3.79688 11.2383 5.25C11.2383 5.97656 11.0508 6.80859 10.6758 7.74609C10.3242 8.68359 9.89062 9.5625 9.375 10.3828C8.85938 11.2031 8.34375 11.9766 7.82812 12.7031C7.33594 13.4062 6.91406 13.9688 6.5625 14.3906L6 14.9883C5.85938 14.8242 5.67188 14.6133 5.4375 14.3555C5.20312 14.0742 4.78125 13.5352 4.17188 12.7383C3.5625 11.918 3.02344 11.1328 2.55469 10.3828C2.10938 9.60938 1.69922 8.74219 1.32422 7.78125C0.949219 6.82031 0.761719 5.97656 0.761719 5.25C0.761719 3.79688 1.26562 2.56641 2.27344 1.55859Z" fill="#1E1E1E"/>
</svg>
