<svg width="22" height="23" viewBox="0 0 22 23" fill="none" xmlns="http://www.w3.org/2000/svg">
<path fill-rule="evenodd" clip-rule="evenodd" d="M20.1667 22.105C20.1667 22.105 22 22.105 22 20.2716C22 18.4383 20.1667 12.9383 11 12.9383C1.83333 12.9383 0 18.4383 0 20.2716C0 22.105 1.83333 22.105 1.83333 22.105H20.1667ZM1.8425 20.3743V20.3706V20.3743ZM1.87367 20.2716H20.1263C20.1349 20.2706 20.1435 20.2694 20.152 20.268L20.1667 20.2643C20.1648 19.8133 19.8843 18.4566 18.6413 17.2136C17.446 16.0183 15.1965 14.7716 11 14.7716C6.80167 14.7716 4.554 16.0183 3.35867 17.2136C2.11567 18.4566 1.837 19.8133 1.83333 20.2643C1.84675 20.2669 1.8602 20.2693 1.87367 20.2716V20.2716ZM20.1593 20.3743V20.3706V20.3743ZM11 9.27165C11.9725 9.27165 12.9051 8.88534 13.5927 8.19771C14.2804 7.51007 14.6667 6.57744 14.6667 5.60498C14.6667 4.63252 14.2804 3.69989 13.5927 3.01226C12.9051 2.32462 11.9725 1.93831 11 1.93831C10.0275 1.93831 9.09491 2.32462 8.40728 3.01226C7.71964 3.69989 7.33333 4.63252 7.33333 5.60498C7.33333 6.57744 7.71964 7.51007 8.40728 8.19771C9.09491 8.88534 10.0275 9.27165 11 9.27165V9.27165ZM16.5 5.60498C16.5 7.06367 15.9205 8.46262 14.8891 9.49407C13.8576 10.5255 12.4587 11.105 11 11.105C9.54131 11.105 8.14236 10.5255 7.11091 9.49407C6.07946 8.46262 5.5 7.06367 5.5 5.60498C5.5 4.14629 6.07946 2.74734 7.11091 1.71589C8.14236 0.684443 9.54131 0.10498 11 0.10498C12.4587 0.10498 13.8576 0.684443 14.8891 1.71589C15.9205 2.74734 16.5 4.14629 16.5 5.60498V5.60498Z" fill="#1E1E1E"/>
</svg>
