<svg width="33" height="33" viewBox="0 0 33 33" fill="none" xmlns="http://www.w3.org/2000/svg">
<path d="M22.6433 8.83984C21.8633 8.83984 21.2333 9.46984 21.2333 10.2498C21.2333 11.0298 21.8633 11.6598 22.6433 11.6598C23.4233 11.6598 24.0533 11.0298 24.0533 10.2498C24.0533 9.46984 23.4233 8.83984 22.6433 8.83984Z" fill="#6F99FF"/>
<path d="M16.3733 10.1699C12.9233 10.1699 10.1233 12.9699 10.1233 16.4199C10.1233 19.8699 12.9233 22.6699 16.3733 22.6699C19.8233 22.6699 22.6233 19.8699 22.6233 16.4199C22.6233 12.9699 19.8233 10.1699 16.3733 10.1699ZM16.3733 20.4299C14.1633 20.4299 12.3733 18.6299 12.3733 16.4299C12.3733 14.2299 14.1733 12.4299 16.3733 12.4299C18.5733 12.4299 20.3733 14.2299 20.3733 16.4299C20.3733 18.6299 18.5733 20.4299 16.3733 20.4299Z" fill="#6F99FF"/>
<path d="M21.1033 4.41992H11.5633C7.57331 4.41992 4.33331 7.65992 4.33331 11.6499V21.1899C4.33331 25.1799 7.57331 28.4199 11.5633 28.4199H21.1033C25.0933 28.4199 28.3333 25.1799 28.3333 21.1899V11.6499C28.3333 7.65992 25.0933 4.41992 21.1033 4.41992ZM26.0733 21.1899C26.0733 23.9299 23.8533 26.1499 21.1033 26.1499H11.5633C8.82331 26.1499 6.59331 23.9299 6.59331 21.1899V11.6499C6.59331 8.90992 8.81331 6.68992 11.5633 6.68992H21.1033C23.8433 6.68992 26.0733 8.90992 26.0733 11.6499V21.1899Z" fill="#6F99FF"/>
</svg>
