<svg width="33" height="33" viewBox="0 0 33 33" fill="none" xmlns="http://www.w3.org/2000/svg">
<path d="M7.3095 3.64648C5.67235 3.64648 4.33331 4.98552 4.33331 6.62267V25.6703C4.33331 27.3075 5.67235 28.6465 7.3095 28.6465H26.3571C27.9943 28.6465 29.3333 27.3075 29.3333 25.6703V6.62267C29.3333 4.98552 27.9943 3.64648 26.3571 3.64648H7.3095ZM7.3095 4.83696H26.3571C27.3521 4.83696 28.1428 5.62769 28.1428 6.62267V25.6703C28.1428 26.6653 27.3521 27.456 26.3571 27.456H7.3095C6.31452 27.456 5.52379 26.6653 5.52379 25.6703V6.62267C5.52379 5.62769 6.31452 4.83696 7.3095 4.83696ZM17.4541 7.21791C17.2965 7.21793 17.1453 7.28049 17.0337 7.39186C16.9221 7.50323 16.8592 7.65433 16.8589 7.81199C16.8589 7.81199 16.8524 10.7139 16.8461 13.6225C16.8429 15.0769 16.8391 16.5327 16.8368 17.6288C16.8345 18.7249 16.8333 19.4184 16.8333 19.4761C16.8333 20.5566 15.852 21.4397 14.7337 21.4397C13.6243 21.4397 12.7387 20.5529 12.7387 19.4435C12.7387 18.3341 13.6243 17.4486 14.7337 17.4486C14.7713 17.4486 14.847 17.4609 14.9767 17.4765C15.0603 17.4865 15.1451 17.4787 15.2255 17.4535C15.3058 17.4283 15.3799 17.3864 15.4429 17.3305C15.5058 17.2745 15.5562 17.2059 15.5907 17.129C15.6252 17.0522 15.6429 16.9689 15.6428 16.8847V14.384C15.6428 14.2326 15.5851 14.0869 15.4814 13.9765C15.3778 13.8661 15.2359 13.7994 15.0848 13.7899C14.992 13.7841 14.8753 13.7725 14.7337 13.7725C11.609 13.7725 9.06267 16.3188 9.06266 19.4435C9.06266 22.5683 11.609 25.1146 14.7337 25.1146C17.8583 25.1146 20.4047 22.5683 20.4047 19.4435V14.0573C21.2706 14.7498 22.3497 15.1885 23.5414 15.1885C23.7039 15.1885 23.8585 15.1789 24.0064 15.1653C24.1542 15.1516 24.2916 15.0833 24.3916 14.9736C24.4916 14.8639 24.547 14.7208 24.547 14.5724V11.7926C24.5471 11.6422 24.4902 11.4972 24.3877 11.387C24.2853 11.2768 24.1449 11.2095 23.9948 11.1986C22.123 11.0643 20.6308 9.60614 20.4361 7.75153C20.4209 7.60518 20.352 7.46966 20.2427 7.37112C20.1334 7.27258 19.9915 7.218 19.8444 7.21791H17.4541ZM18.0482 8.40839H19.4061C19.8387 10.3719 21.373 11.8693 23.3565 12.2449V13.9504C22.0834 13.8857 20.9652 13.2506 20.3071 12.2495C20.2367 12.1424 20.1336 12.0608 20.0131 12.017C19.8927 11.9732 19.7613 11.9694 19.6385 12.0062C19.5157 12.0431 19.4081 12.1185 19.3317 12.2214C19.2552 12.3244 19.2141 12.4492 19.2143 12.5774V19.4435C19.2143 21.9248 17.215 23.9241 14.7337 23.9241C12.2525 23.9241 10.2531 21.9248 10.2531 19.4435C10.2531 17.0623 12.1107 15.1722 14.4524 15.0199V16.3151C12.8371 16.4654 11.5482 17.7907 11.5482 19.4435C11.5482 21.1961 12.9812 22.6302 14.7337 22.6302C16.4773 22.6302 18.0238 21.2575 18.0238 19.4761C18.0238 19.5052 18.0249 18.7272 18.0273 17.6311C18.0296 16.535 18.0334 15.0792 18.0366 13.6249C18.0422 11.0136 18.0471 8.91387 18.0482 8.40839Z" fill="#6F99FF" stroke="#6F99FF" stroke-width="0.5"/>
</svg>
