<svg width="33" height="33" viewBox="0 0 33 33" fill="none" xmlns="http://www.w3.org/2000/svg">
<path fill-rule="evenodd" clip-rule="evenodd" d="M16.0433 4.45001C10.0933 4.86001 5.34331 9.80001 5.15331 15.76C5.07331 18.17 5.72331 20.5 7.02331 22.5L4.08331 28.42C4.17331 28.42 11.3533 26.48 11.3533 26.48C13.0433 27.39 14.9433 27.86 16.8733 27.86C23.3333 27.86 28.5933 22.6 28.5933 16.14C28.5933 9.68001 22.8833 3.98001 16.0433 4.45001ZM16.8633 25.82C15.1533 25.82 13.4633 25.36 11.9933 24.5C11.8333 24.41 11.6233 24.26 11.6233 24.26C11.6233 24.26 11.2933 24.37 11.2033 24.39L7.99331 25.27L9.36331 22.25C7.81331 20.34 7.05331 17.98 7.20331 15.52C7.49331 10.72 11.3733 6.81001 16.1733 6.48001C21.8133 6.09001 26.5333 10.57 26.5333 16.13C26.5333 21.69 22.1933 25.81 16.8533 25.81L16.8633 25.82Z" fill="#6F99FF"/>
<path fill-rule="evenodd" clip-rule="evenodd" d="M21.3733 17.9003C20.8833 17.6103 20.2433 17.2803 19.6633 17.5203C19.2233 17.7003 18.9333 18.4003 18.6533 18.7503C18.5033 18.9303 18.3333 18.9603 18.1033 18.8703C16.4333 18.2103 15.1633 17.0903 14.2433 15.5603C14.0833 15.3203 14.1133 15.1303 14.3033 14.9103C14.5833 14.5803 14.9333 14.2103 15.0033 13.7703C15.0833 13.3303 14.8733 12.8103 14.6933 12.4203C14.4633 11.9203 14.2033 11.2003 13.7033 10.9203C13.2433 10.6603 12.6333 10.8103 12.2233 11.1403C11.5133 11.7203 11.1733 12.6203 11.1833 13.5203C11.1833 13.7803 11.2133 14.0303 11.2733 14.2803C11.7733 16.3303 13.1833 18.0603 14.8333 19.3103C16.2533 20.3903 18.6033 21.8503 20.4733 21.5003C21.3833 21.3303 22.2733 20.7703 22.6333 19.8903C22.7433 19.6303 22.7933 19.3403 22.7333 19.0703C22.6133 18.5103 21.8433 18.1703 21.3833 17.9003H21.3733Z" fill="#6F99FF"/>
</svg>
